<svg width="500" height="470" viewBox="0 0 500 470" fill="none" xmlns="http://www.w3.org/2000/svg">
<path d="M458.87 122.61C458.87 122.61 431.1 57.81 373.5 32.1C315.9 6.38998 281.96 26.96 240.82 52.67C199.68 78.38 105.06 59.87 65.97 81.47C26.9 103.07 8.38004 155.53 28.95 214.15C49.52 272.77 103 317 90.66 345.8C78.32 374.6 194.54 480.53 291.22 441.45C387.9 402.37 362.19 359.17 406.41 339.63C450.64 320.09 481.49 267.63 479.43 203.87C477.37 140.1 458.86 122.62 458.86 122.62L458.87 122.61Z" fill="#4BA285"/>
<g opacity="0.8" filter="url(#filter0_d_3_240)">
<path d="M458.87 122.61C458.87 122.61 431.1 57.81 373.5 32.1C315.9 6.38998 281.96 26.96 240.82 52.67C199.68 78.38 105.06 59.87 65.97 81.47C26.9 103.07 8.38004 155.53 28.95 214.15C49.52 272.77 103 317 90.66 345.8C78.32 374.6 194.54 480.53 291.22 441.45C387.9 402.37 362.19 359.17 406.41 339.63C450.64 320.09 481.49 267.63 479.43 203.87C477.37 140.1 458.86 122.62 458.86 122.62L458.87 122.61Z" fill="white"/>
</g>
<path d="M90.5201 34.75C92.7701 35.7 94.3501 37.93 94.3501 40.53V57.42C94.3501 60.89 91.5401 63.69 88.0801 63.69C84.6101 63.69 81.8101 60.88 81.8101 57.42V40.53C81.8101 37.93 83.3901 35.7 85.6401 34.75" stroke="#FF9797" stroke-linecap="round" stroke-linejoin="round"/>
<path d="M88.0801 63.7C84.6101 63.7 81.8101 60.89 81.8101 57.43V48.98H94.3601V57.43C94.3601 60.9 91.5501 63.7 88.0901 63.7H88.0801Z" stroke="#FF9797" stroke-linecap="round" stroke-linejoin="round"/>
<path d="M74.5901 32.34L65.3601 39.75C62.6601 41.92 58.7101 41.49 56.5401 38.78C54.3701 36.08 54.8001 32.13 57.5101 29.96L70.6901 19.39C73.3901 17.22 77.3401 17.65 79.5101 20.36C81.6801 23.06 81.2501 27.01 78.5401 29.18L77.4801 30.03" stroke="#FF9797" stroke-linecap="round" stroke-linejoin="round"/>
<path d="M56.5401 38.78C54.3701 36.08 54.8001 32.13 57.5101 29.96L64.1001 24.67L71.9501 34.46L65.3601 39.75C62.6601 41.92 58.7101 41.49 56.5401 38.78Z" stroke="#FF9797" stroke-linecap="round" stroke-linejoin="round"/>
<path d="M405.46 310.72C400.99 311.97 397.67 315.95 397.4 320.75H383.68C383.37 318.23 381.24 316.27 378.64 316.27C375.82 316.27 373.53 318.56 373.53 321.38C373.53 324.2 375.82 326.49 378.64 326.49C380.62 326.49 382.31 325.36 383.16 323.71H397.62C398.69 328.7 403.12 332.45 408.44 332.45C411.59 332.45 414.43 331.13 416.45 329.01L423.54 334.52" stroke="#FF9797" stroke-linecap="round" stroke-linejoin="round"/>
<path d="M427.39 337.52L436.03 344.24C435.81 344.81 435.68 345.42 435.68 346.07C435.68 348.89 437.97 351.18 440.79 351.18C443.61 351.18 445.9 348.89 445.9 346.07C445.9 343.25 443.61 340.96 440.79 340.96C439.69 340.96 438.68 341.31 437.85 341.9L418.19 326.61C419.03 325.05 419.51 323.27 419.51 321.37C419.51 319.05 418.79 316.9 417.57 315.12L429.59 299.73C430.16 299.95 430.78 300.08 431.43 300.08C434.25 300.08 436.54 297.79 436.54 294.97C436.54 292.15 434.25 289.86 431.43 289.86C428.61 289.86 426.32 292.15 426.32 294.97C426.32 296.06 426.67 297.07 427.26 297.9L415.55 312.88C413.63 311.26 411.15 310.29 408.44 310.29" stroke="#FF9797" stroke-linecap="round" stroke-linejoin="round"/>
<path d="M255.31 37.73V84.71C255.31 88.84 251.97 92.18 247.84 92.18C243.71 92.18 240.37 88.84 240.37 84.71V24.39H255.31V34.96" stroke="#FF9797" stroke-linecap="round" stroke-linejoin="round"/>
<path d="M247.84 92.18C243.71 92.18 240.37 88.84 240.37 84.71V46.5H255.31V84.71C255.31 88.84 251.97 92.18 247.84 92.18Z" stroke="#FF9797" stroke-linecap="round" stroke-linejoin="round"/>
<path d="M255.31 24.39H257.45V18.95H238.24V24.39H240.37" stroke="#FF9797" stroke-linecap="round" stroke-linejoin="round"/>
<path d="M217.73 67.36V24.39H232.67V84.71C232.67 88.84 229.32 92.18 225.2 92.18C221.08 92.18 217.73 88.84 217.73 84.71V71.32" stroke="#FF9797" stroke-linecap="round" stroke-linejoin="round"/>
<path d="M217.72 67.36V46.5H232.66V84.71C232.66 88.84 229.32 92.18 225.19 92.18C221.06 92.18 217.72 88.84 217.72 84.71V72.5" stroke="#FF9797" stroke-linecap="round" stroke-linejoin="round"/>
<path d="M232.67 24.39H234.8V18.95H215.59V24.39H217.73" stroke="#FF9797" stroke-linecap="round" stroke-linejoin="round"/>
<path d="M93.98 310.65C88.17 312.7 83.7101 317.62 82.2801 323.7C80.3901 315.63 73.16 309.61 64.51 309.61C54.42 309.61 46.2401 317.79 46.2401 327.88C46.2401 332.37 48.1901 336.36 50.9801 340.01H70.67L76.5401 325.92C76.7401 325.45 77.22 325.16 77.72 325.18C78.23 325.21 78.6701 325.55 78.8201 326.04L85.9201 349.48L91.34 332.21C91.5 331.71 91.95 331.37 92.48 331.36C93 331.4 93.4701 331.68 93.6401 332.17L96.6501 340.84H112.89C116 337.18 118.33 333.07 118.33 327.88C118.33 317.79 110.15 309.61 100.06 309.61" stroke="#FF9797" stroke-linecap="round" stroke-linejoin="round"/>
<path d="M72.98 361.83C76.11 364.96 79.25 368.08 82.46 371.12C89.79 363.87 97.17 356.67 104.45 349.37C106.46 347.35 108.65 345.36 110.68 343.26H95.79C95.28 343.26 94.82 342.93 94.65 342.45L92.55 336.43L87.05 353.96C86.89 354.46 86.42 354.81 85.9 354.81C85.37 354.81 84.9 354.46 84.75 353.95L77.49 329.98L72.6 341.7C72.41 342.15 71.97 342.44 71.48 342.44H52.98C56.96 346.89 61.92 350.82 65.63 354.49C67.26 356.1 68.89 357.73 70.51 359.36" stroke="#FF9797" stroke-linecap="round" stroke-linejoin="round"/>
<path d="M457.89 68.7L456.67 66.58L462.7 63.14L463.92 65.26" stroke="#FF9797" stroke-linecap="round" stroke-linejoin="round"/>
<path d="M464.04 79.49L460.32 72.97V72.96L466.35 69.52H466.36L473.45 81.96L467.42 85.4L465.72 82.43" stroke="#FF9797" stroke-linecap="round" stroke-linejoin="round"/>
<path d="M467.817 89.9068L477.127 84.5922L475.1 81.0402L465.79 86.3548L467.817 89.9068Z" stroke="#FF9797" stroke-linecap="round" stroke-linejoin="round"/>
<path d="M462.68 52.79L451.94 33.96" stroke="#FF9797" stroke-linecap="round" stroke-linejoin="round"/>
<path d="M468.35 62.73L464.51 56" stroke="#FF9797" stroke-linecap="round" stroke-linejoin="round"/>
<path d="M441.94 51.11L437.02 42.48" stroke="#FF9797" stroke-linecap="round" stroke-linejoin="round"/>
<path d="M453.44 71.25L443.7 54.18" stroke="#FF9797" stroke-linecap="round" stroke-linejoin="round"/>
<path d="M455.88 75.5L460.32 72.97V72.96L466.35 69.52H466.36L470.79 66.99" stroke="#FF9797" stroke-linecap="round" stroke-linejoin="round"/>
<path d="M438.97 41.36L449.12 59.12L451.61 57.7L457.65 54.25L460.12 52.83L449.99 35.08" stroke="#FF9797" stroke-linecap="round" stroke-linejoin="round"/>
<path d="M463.92 65.26L462.7 63.14L457.65 54.25" stroke="#FF9797" stroke-linecap="round" stroke-linejoin="round"/>
<path d="M451.61 57.7L456.67 66.58L457.89 68.7" stroke="#FF9797" stroke-linecap="round" stroke-linejoin="round"/>
<path d="M460.32 72.96L455.88 75.5L454.81 76.11L452.38 71.85L453.44 71.25L457.89 68.7L463.92 65.26L468.35 62.73L469.42 62.12L471.86 66.38L470.79 66.99L466.36 69.52H466.35" stroke="#FF9797" stroke-linecap="round" stroke-linejoin="round"/>
<path d="M441.39 28.68L435.18 32.23L437.62 36.5" stroke="#FF9797" stroke-linecap="round" stroke-linejoin="round"/>
<path d="M446.5 31.43L444.06 27.16" stroke="#FF9797" stroke-linecap="round" stroke-linejoin="round"/>
<path d="M438.97 41.36L449.99 35.08L451.94 33.96L453.01 33.35L450.58 29.1L446.5 31.43L437.62 36.5L433.53 38.83L435.96 43.08L437.02 42.48L438.97 41.36Z" stroke="#FF9797" stroke-linecap="round" stroke-linejoin="round"/>
<path d="M439.04 29.09L427.28 8.48999" stroke="#FF9797" stroke-linecap="round" stroke-linejoin="round"/>
<path d="M374.46 258.49C424.243 258.49 464.6 218.133 464.6 168.35C464.6 118.567 424.243 78.21 374.46 78.21C324.677 78.21 284.32 118.567 284.32 168.35C284.32 218.133 324.677 258.49 374.46 258.49Z" fill="#4BA285"/>
<path d="M325.23 265.13L325.54 193.05C325.54 193.05 312.81 194.81 310.68 195.11C308.55 195.41 307.56 192.96 301.47 186.87C295.38 180.78 296.29 164.03 304.21 158.54C312.13 153.05 329.49 132.96 330.71 131.74C331.93 130.52 340.46 131.74 343.81 132.35C347.16 132.96 353.25 136.31 354.77 136.61C356.29 136.91 367.56 138.74 367.56 138.74C367.56 138.74 405.63 145.75 408.98 146.35C412.33 146.96 427.25 155.79 430.91 156.4C434.56 157.01 438.83 162.8 439.44 165.54C440.05 168.28 445.84 217.01 448.27 220.36C450.71 223.71 458.93 266.03 458.93 266.03" fill="white"/>
<path d="M325.23 265.13L325.54 193.05C325.54 193.05 312.81 194.81 310.68 195.11C308.55 195.41 307.56 192.96 301.47 186.87C295.38 180.78 296.29 164.03 304.21 158.54C312.13 153.05 329.49 132.96 330.71 131.74C331.93 130.52 340.46 131.74 343.81 132.35C347.16 132.96 353.25 136.31 354.77 136.61C356.29 136.91 367.56 138.74 367.56 138.74C367.56 138.74 405.63 145.75 408.98 146.35C412.33 146.96 427.25 155.79 430.91 156.4C434.56 157.01 438.83 162.8 439.44 165.54C440.05 168.28 445.84 217.01 448.27 220.36C450.71 223.71 458.93 266.03 458.93 266.03" stroke="#073F2C" stroke-linecap="round" stroke-linejoin="round"/>
<path d="M394.93 162.64H398.7L409.67 167.09L397.33 156.12L394.93 162.64Z" fill="#073F2C" stroke="#073F2C" stroke-linecap="round" stroke-linejoin="round"/>
<path d="M371.29 163.66L386.02 161.61L380.88 154.07L371.29 163.66Z" fill="#073F2C" stroke="#073F2C" stroke-linecap="round" stroke-linejoin="round"/>
<path d="M334.21 145.99C334.21 145.99 335.86 168.28 333.38 177.77C330.9 187.26 328.84 189.74 328.84 189.74" stroke="#073F2C" stroke-linecap="round" stroke-linejoin="round"/>
<path d="M332.5 197.87C332.13 199.15 331.74 200.44 331.32 201.72L332.5 197.87Z" fill="white"/>
<path d="M332.5 197.87C332.13 199.15 331.74 200.44 331.32 201.72" stroke="#073F2C" stroke-linecap="round" stroke-linejoin="round"/>
<path d="M337.92 161.26C337.92 161.26 337.92 176.71 333.51 194.11L337.92 161.26Z" fill="white"/>
<path d="M337.92 161.26C337.92 161.26 337.92 176.71 333.51 194.11" stroke="#073F2C" stroke-linecap="round" stroke-linejoin="round"/>
<path d="M434.72 261.08C434.72 261.08 428.78 234.69 429.39 231.95C430 229.21 431.83 179.87 431.83 179.87" stroke="#073F2C" stroke-linecap="round" stroke-linejoin="round"/>
<path d="M358.5 152.47C359.05 153.98 359.63 155.6 360.25 157.33" stroke="#073F2C" stroke-linecap="round" stroke-linejoin="round"/>
<path d="M352.94 137.83C352.94 137.83 354.6 141.88 357.48 149.69" stroke="#073F2C" stroke-linecap="round" stroke-linejoin="round"/>
<path d="M365.35 181.46C365.67 183.19 365.91 184.9 366.04 186.57" stroke="#073F2C" stroke-linecap="round" stroke-linejoin="round"/>
<path d="M354.77 152.15C354.77 152.15 361.37 164.75 364.52 177.63" stroke="#073F2C" stroke-linecap="round" stroke-linejoin="round"/>
<path d="M390.83 169.46C390.83 169.46 394.37 202.4 394.37 206.97C394.37 211.54 397 262.59 397 262.59" stroke="#073F2C" stroke-linecap="round" stroke-linejoin="round"/>
<path d="M427.56 215.94L406.85 213.96V181.61L427.56 183.6V215.94Z" fill="white" stroke="#073F2C" stroke-linecap="round" stroke-linejoin="round"/>
<path d="M419.34 184.59L414.16 184.28V174.22L419.34 174.54V184.59Z" fill="#4BA285" stroke="#073F2C" stroke-linecap="round" stroke-linejoin="round"/>
<path d="M374.33 131.05C374.33 131.05 372.01 130.79 371.49 131.57C370.97 132.35 365.05 139.05 365.05 139.05C365.05 139.05 365.82 142.66 365.82 149.36C365.82 156.06 368.91 166.37 368.91 166.37L381.54 158.12C381.54 158.12 387.98 156.32 389.79 155.8C391.59 155.28 394.69 155.8 394.69 155.8C394.69 155.8 412.73 171.01 413.76 170.49C414.79 169.97 410.67 152.96 407.83 145.49C404.99 138.01 397 133.89 397 133.89C397 133.89 378.7 130.54 374.32 131.05H374.33Z" fill="white" stroke="#073F2C" stroke-linecap="round" stroke-linejoin="round"/>
<path d="M370.98 99.6C370.98 99.6 363.76 100.63 358.09 104.76C352.42 108.89 357.32 123.32 364.28 126.93C371.24 130.54 376.14 129.51 378.97 123.06C381.81 116.62 380.52 103.47 378.71 101.41C376.91 99.35 370.98 99.61 370.98 99.61V99.6Z" fill="#073F2C"/>
<path d="M377.16 105.53L374.58 133.63C374.58 133.63 376.9 141.88 381.8 152.7C386.7 163.53 390.82 169.45 390.82 169.45C390.82 169.45 397.01 158.11 398.55 154.24C400.1 150.37 401.64 143.16 401.64 143.16L405.51 126.41C405.51 126.41 398.55 124.61 390.04 118.16C381.53 111.72 377.15 105.53 377.15 105.53H377.16Z" fill="white" stroke="#073F2C" stroke-linecap="round" stroke-linejoin="round"/>
<path d="M405.52 126.41C405.52 126.41 398.56 124.61 390.05 118.16C387.59 116.3 385.49 114.46 383.72 112.78V124.3C383.72 124.3 390.22 135.67 396.71 138.92C398.53 139.83 400.45 140.28 402.26 140.48L405.51 126.41H405.52Z" fill="#073F2C"/>
<path d="M423.3 101.15C423.3 101.15 425.36 99.09 425.62 103.47C425.88 107.85 423.04 111.46 421.24 113.01C419.44 114.56 418.66 115.07 418.66 115.07L423.3 101.15Z" fill="white" stroke="#073F2C" stroke-linecap="round" stroke-linejoin="round"/>
<path d="M405.52 60.66C405.52 60.66 395.56 58.67 386.4 65.44C377.24 72.21 376.44 88.55 376.44 88.55C376.44 88.55 373.25 85.76 371.26 89.35C369.27 92.94 369.27 102.1 370.86 102.89C372.45 103.69 374.45 104.48 374.45 104.48C374.45 104.48 376.84 116.43 379.23 120.02C381.62 123.61 390.38 132.77 395.56 132.77C400.74 132.77 409.5 129.98 413.49 124.8C417.47 119.62 420.26 113.25 421.86 108.87C423.45 104.49 426.24 83.37 426.24 83.37C426.24 83.37 427.44 73.81 419.87 67.04C412.3 60.27 405.53 60.67 405.53 60.67L405.52 60.66Z" fill="white" stroke="#073F2C" stroke-linecap="round" stroke-linejoin="round"/>
<path d="M379.23 120.02C381.62 123.61 390.38 132.77 395.56 132.77C400.74 132.77 409.5 129.98 413.49 124.8C417.47 119.62 420.26 113.25 421.86 108.87C422.24 107.82 422.7 105.79 423.16 103.33C422.12 102.3 415.07 95.58 406.04 93.68C396.24 91.62 378.46 90.07 378.46 90.07L376.45 88.55L374.62 105.28C375.2 108.01 377.22 117 379.24 120.02H379.23Z" fill="#4BA285" stroke="#073F2C" stroke-linecap="round" stroke-linejoin="round"/>
<path d="M409.64 94.96C409.64 94.96 411.19 87.23 411.96 85.16C412.73 83.1 417.89 81.29 421.76 86.96" stroke="#073F2C" stroke-linecap="round" stroke-linejoin="round"/>
<path d="M400.88 80.01C400.88 80.01 395.72 73.57 387.48 79.24" stroke="#073F2C" stroke-linecap="round" stroke-linejoin="round"/>
<path d="M393.1 85.64C392.82 86.67 392.03 87.35 391.34 87.16C390.65 86.97 390.33 85.98 390.61 84.95C390.89 83.92 391.68 83.24 392.37 83.43C393.06 83.62 393.38 84.61 393.1 85.64Z" fill="#073F2C"/>
<path d="M415.78 91.12C415.5 92.15 414.71 92.83 414.02 92.64C413.33 92.45 413.01 91.46 413.29 90.43C413.57 89.4 414.36 88.72 415.05 88.91C415.74 89.1 416.06 90.09 415.78 91.12Z" fill="#073F2C"/>
<path d="M376.44 88.55C376.44 88.55 377.94 89.04 378.71 87.75C379.48 86.46 377.94 81.82 383.61 76.15C389.28 70.48 395.73 69.71 398.82 67.13C401.91 64.55 402.43 63.26 400.37 60.69C398.31 58.11 395.21 53.73 383.87 60.17C372.53 66.61 368.4 70.74 370.21 76.41C372.01 82.08 374.59 85.43 374.59 85.43L376.45 88.55H376.44Z" fill="#073F2C"/>
<path d="M397.78 58.62C397.78 58.62 400.1 64.03 404.22 66.1C408.34 68.16 413.76 68.94 420.2 72.8C426.64 76.66 425.36 88.27 425.36 88.27C425.36 88.27 434.12 92.65 437.73 86.21C441.34 79.77 444.69 68.94 430.51 60.95C416.33 52.96 405.76 43.42 397.77 58.63L397.78 58.62Z" fill="#073F2C"/>
<path d="M357.51 43.72V80.43C357.51 82.53 355.8 84.23 353.71 84.23H353.7C351.6 84.23 349.9 82.52 349.9 80.43V43.72H357.51Z" fill="white" stroke="#073F2C" stroke-linecap="round" stroke-linejoin="round"/>
<path d="M357.51 63.21V80.42C357.51 82.52 355.8 84.22 353.71 84.22H353.7C351.6 84.22 349.9 82.51 349.9 80.42V63.21H357.51Z" fill="#4BA285" stroke="#073F2C" stroke-linecap="round" stroke-linejoin="round"/>
<path d="M358.73 41.89H348.68V44.94H358.73V41.89Z" fill="white" stroke="#073F2C" stroke-linecap="round" stroke-linejoin="round"/>
<path d="M334.06 116.82C334.06 116.82 334.06 115.91 329.8 112.86C325.54 109.81 309.39 109.51 306.04 113.47C302.69 117.43 314.57 128.39 317.92 129.92C321.27 131.44 327.36 128.7 329.19 126.57C331.02 124.44 334.06 116.82 334.06 116.82Z" fill="white" stroke="#073F2C" stroke-linecap="round" stroke-linejoin="round"/>
<path d="M312.13 93.67L309.08 116.51C309.08 116.51 314.87 124.43 320.04 124.73C325.22 125.03 329.79 120.16 329.79 120.16L331.01 97.32C331.01 97.32 319.13 97.02 312.13 93.67Z" fill="white" stroke="#073F2C" stroke-linecap="round" stroke-linejoin="round"/>
<path d="M315.48 78.44C315.48 78.44 316.09 63.52 316.7 57.42C317.31 51.33 319.14 47.06 320.05 47.06C320.96 47.06 332.23 39.14 332.23 39.14C332.23 39.14 350.5 40.36 352.33 40.36C354.16 40.36 357.81 41.58 357.51 43.41L357.21 45.24C357.21 45.24 357.51 47.37 357.21 48.29C356.91 49.2 355.99 49.81 355.99 49.81C355.99 49.81 356.6 51.33 354.77 52.25C352.94 53.16 345.33 57.12 345.33 57.12C345.33 57.12 341.68 64.73 340.46 69C339.24 73.26 334.37 77.83 334.37 77.83C334.37 77.83 334.67 82.09 334.67 84.84C334.67 87.59 333.15 91.85 333.15 91.85C333.15 91.85 333.45 95.81 333.15 96.72C332.85 97.63 331.93 98.85 331.02 98.85C330.11 98.85 323.41 100.07 320.06 99.46C316.71 98.85 311.84 94.89 311.84 94.89L313.36 88.8V83.93C313.36 82.1 315.49 78.45 315.49 78.45L315.48 78.44Z" fill="#4BA285" stroke="#073F2C" stroke-linecap="round" stroke-linejoin="round"/>
<path d="M325.84 77.83C325.84 77.83 332.24 75.39 332.85 71.43C333.46 67.47 336.5 57.42 336.5 57.42L345.33 57.12" stroke="#073F2C" stroke-linecap="round" stroke-linejoin="round"/>
<path d="M329.19 53.16C329.19 53.16 337.11 50.42 339.24 50.42C341.37 50.42 355.99 49.81 355.99 49.81" stroke="#073F2C" stroke-linecap="round" stroke-linejoin="round"/>
<path d="M328.88 46.16C328.88 46.16 334.67 44.64 340.15 44.64C345.63 44.64 357.21 45.25 357.21 45.25" stroke="#073F2C" stroke-linecap="round" stroke-linejoin="round"/>
<path d="M315.18 90.32C315.18 90.32 319.14 94.58 327.67 93.67" stroke="#073F2C" stroke-linecap="round" stroke-linejoin="round"/>
<path d="M332.54 89.1C332.54 89.1 331.02 90.01 324.01 90.01" stroke="#073F2C" stroke-linecap="round" stroke-linejoin="round"/>
<path d="M309.09 116.51L306.04 113.46C306.04 113.46 289.29 176.81 288.98 181.38C288.68 185.95 295.68 193.56 299.64 195.39C303.6 197.22 316.7 195.69 320.96 193.56C325.22 191.43 327.97 182.9 330.4 174.98C332.84 167.06 330.1 153.05 330.7 148.79C331.31 144.53 334.05 116.81 334.05 116.81L329.79 120.16C329.79 120.16 317.91 119.86 309.08 116.51H309.09Z" fill="white" stroke="#073F2C" stroke-linecap="round" stroke-linejoin="round"/>
<path d="M310.99 265.61H470.19" stroke="#073F2C" stroke-linecap="round" stroke-linejoin="round"/>
<path d="M140.38 256.8C190.163 256.8 230.52 216.443 230.52 166.66C230.52 116.877 190.163 76.52 140.38 76.52C90.5971 76.52 50.2401 116.877 50.2401 166.66C50.2401 216.443 90.5971 256.8 140.38 256.8Z" fill="#4BA285"/>
<path d="M78.1 261.44L80.1 215.75C80.1 215.75 72.43 239.43 68.43 245.43C64.43 251.43 61.43 253.77 55.76 252.77C50.09 251.77 39.42 234.43 39.42 225.75C39.42 217.07 48.43 195.07 50.43 190.06C52.43 185.05 63.1 142.7 64.44 140.37C65.77 138.04 109.13 124.96 109.13 124.96L112.13 118.62C112.13 118.62 156.49 113.62 159.49 113.95C162.49 114.28 162.16 119.29 162.16 119.29C162.16 119.29 167.57 123.97 168.24 124.97C168.91 125.97 193.51 138.04 201.19 140.7C208.86 143.37 209.53 146.04 209.86 147.37C210.19 148.7 230.2 193.73 237.54 201.4C244.88 209.07 226.2 223.75 219.86 226.41C213.52 229.08 204.85 227.74 201.85 223.07C198.85 218.4 191.51 212.4 191.51 212.4L192.77 262.11" fill="white"/>
<path d="M78.1 261.44L80.1 215.75C80.1 215.75 72.43 239.43 68.43 245.43C64.43 251.43 61.43 253.77 55.76 252.77C50.09 251.77 39.42 234.43 39.42 225.75C39.42 217.07 48.43 195.07 50.43 190.06C52.43 185.05 63.1 142.7 64.44 140.37C65.77 138.04 109.13 124.96 109.13 124.96L112.13 118.62C112.13 118.62 156.49 113.62 159.49 113.95C162.49 114.28 162.16 119.29 162.16 119.29C162.16 119.29 167.57 123.97 168.24 124.97C168.91 125.97 193.51 138.04 201.19 140.7C208.86 143.37 209.53 146.04 209.86 147.37C210.19 148.7 230.2 193.73 237.54 201.4C244.88 209.07 226.2 223.75 219.86 226.41C213.52 229.08 204.85 227.74 201.85 223.07C198.85 218.4 191.51 212.4 191.51 212.4L192.77 262.11" stroke="#073F2C" stroke-linecap="round" stroke-linejoin="round"/>
<path d="M80.1 215.75L79.6 182.41" stroke="#073F2C" stroke-linecap="round" stroke-linejoin="round"/>
<path d="M77.2601 199.2L78.0301 204.71" stroke="#073F2C" stroke-linecap="round" stroke-linejoin="round"/>
<path d="M74.1201 176.93L76.5201 194" stroke="#073F2C" stroke-linecap="round" stroke-linejoin="round"/>
<path d="M187.9 191.48C187.64 193.06 187.5 194.6 187.5 196.06" stroke="#073F2C" stroke-linecap="round" stroke-linejoin="round"/>
<path d="M196.83 167.39C196.83 167.39 191.4 177.28 188.82 187.15" stroke="#073F2C" stroke-linecap="round" stroke-linejoin="round"/>
<path d="M186.83 178.06C186.83 178.06 184.16 187.07 184.5 194.4" stroke="#073F2C" stroke-linecap="round" stroke-linejoin="round"/>
<path d="M149.38 136.3C148.55 137.1 147.69 137.88 146.81 138.63" stroke="#073F2C" stroke-linecap="round" stroke-linejoin="round"/>
<path d="M161.48 120.96C161.48 120.96 157.84 127.24 152.12 133.48" stroke="#073F2C" stroke-linecap="round" stroke-linejoin="round"/>
<path d="M132.2 253.94L132.13 261.77" stroke="#073F2C" stroke-linecap="round" stroke-linejoin="round"/>
<path d="M132.98 163.24L132.24 249.14" stroke="#073F2C" stroke-linecap="round" stroke-linejoin="round"/>
<path d="M131.8 134.63L133.13 140.97L133.02 158.45" stroke="#073F2C" stroke-linecap="round" stroke-linejoin="round"/>
<path d="M64.43 223.42L57.43 211.41L57.1 225.08C57.1 225.08 62.1 226.41 64.44 223.41L64.43 223.42Z" fill="white" stroke="#073F2C" stroke-linecap="round" stroke-linejoin="round"/>
<path d="M77.7701 166.92L72.7501 171.81L37.0801 133.81L42.0901 128.92L77.7701 166.92Z" fill="#073F2C" stroke="#073F2C" stroke-linecap="round" stroke-linejoin="round"/>
<path d="M41.5637 126.453L34.631 133.209L36.6201 135.25L43.5527 128.494L41.5637 126.453Z" fill="white" stroke="#073F2C" stroke-linecap="round" stroke-linejoin="round"/>
<path d="M77.1414 167.525L73.3958 171.175L76.4248 174.283L80.1704 170.633L77.1414 167.525Z" fill="white" stroke="#073F2C" stroke-linecap="round" stroke-linejoin="round"/>
<path d="M75.5001 166C74.8001 166.69 73.6701 166.67 72.9901 165.97L45.8701 136.75C45.1801 136.05 45.2001 134.92 45.9001 134.24C46.6001 133.55 47.7301 133.57 48.4101 134.27L75.5301 163.49C76.2201 164.19 76.2001 165.32 75.5001 166Z" fill="white" stroke="#073F2C" stroke-linecap="round" stroke-linejoin="round"/>
<path d="M77.6034 173.126L78.9718 171.793L98.2064 191.545C98.5413 191.889 98.534 192.441 98.1901 192.775L98.0755 192.887C97.7316 193.222 97.1729 193.222 96.8311 192.871L77.5964 173.119L77.6034 173.126Z" fill="white" stroke="#073F2C" stroke-linecap="round" stroke-linejoin="round"/>
<path d="M44.4201 180.06L39.7501 165.72L42.4201 150.04C42.4201 150.04 49.7601 141.7 50.7601 141.37C51.7601 141.04 60.7701 141.04 60.7701 141.04C60.7701 141.04 62.4401 140.37 62.4401 142.04C62.4401 143.71 61.4401 144.37 61.4401 144.37C61.4401 144.37 65.1101 144.7 66.1101 144.7C67.1101 144.7 68.1101 145.37 68.1101 147.03C68.1101 148.69 65.4401 149.36 64.4401 149.7C63.4401 150.04 59.7701 151.37 59.7701 151.37L54.1001 157.71H60.4401C61.7701 157.71 64.1101 158.38 64.1101 158.38C64.7801 159.38 65.1101 163.05 65.1101 163.05C65.1101 163.05 66.7801 165.38 66.7801 169.05C66.7801 172.72 67.7801 174.72 66.7801 175.05C65.7801 175.38 63.4401 177.05 63.4401 175.38C63.4401 173.71 63.1101 172.04 63.1101 172.04L59.4401 172.71L58.1101 175.38C58.1101 175.38 61.1101 182.05 61.1101 184.72C61.1101 187.39 59.7801 196.39 59.7801 196.39L58.4501 221.74C58.4501 221.74 54.7801 221.74 49.7801 219.41C44.7801 217.08 39.4401 208.4 39.4401 208.4L45.4401 187.72L44.4401 180.05L44.4201 180.06Z" fill="#4BA285" stroke="#073F2C" stroke-linecap="round" stroke-linejoin="round"/>
<path d="M49.42 204.07C46.61 203.6 44.02 201.45 42.06 199.29L39.41 208.4C39.41 208.4 44.75 217.07 49.75 219.41C54.75 221.74 58.42 221.74 58.42 221.74L59.43 202.54C56.74 203.56 52.86 204.64 49.41 204.06L49.42 204.07Z" fill="#D1D1D1" stroke="#073F2C" stroke-linecap="round" stroke-linejoin="round"/>
<path d="M53.7501 169.05C53.7501 169.05 54.4201 167.38 55.4201 167.05C56.4201 166.72 65.4301 164.38 65.4301 164.38" stroke="#073F2C" stroke-linecap="round" stroke-linejoin="round"/>
<path d="M49.7501 163.05L50.7501 159.71L54.0901 157.71" stroke="#073F2C" stroke-linecap="round" stroke-linejoin="round"/>
<path d="M45.7501 157.05C45.7501 157.05 50.0901 149.38 51.4201 148.05C52.7501 146.72 60.4301 145.05 61.4301 144.38" stroke="#073F2C" stroke-linecap="round" stroke-linejoin="round"/>
<path d="M58.4201 221.75L64.4201 223.42C64.4201 223.42 66.0901 247.1 66.0901 250.1C66.0901 253.1 59.0901 256.77 51.4201 257.44C43.7501 258.11 31.7401 252.1 31.7401 246.77C31.7401 241.44 39.6901 205.1 39.6901 205.1C39.6901 205.1 45.4201 220.09 58.4201 221.75Z" fill="white" stroke="#073F2C" stroke-linecap="round" stroke-linejoin="round"/>
<path d="M149.47 206.74C149.47 206.74 145.13 206.74 141.13 205.07C137.13 203.4 133.46 202.74 131.46 202.4C129.46 202.07 125.79 203.73 123.12 202.07C120.45 200.4 118.12 199.07 122.45 197.4C126.79 195.73 133.79 197.73 136.46 198.07C139.13 198.4 144.13 197.4 144.13 197.4L149.47 206.74Z" fill="#4BA285" stroke="#073F2C" stroke-linecap="round" stroke-linejoin="round"/>
<path d="M105.45 210.07C119.263 210.07 130.46 205.964 130.46 200.9C130.46 195.836 119.263 191.73 105.45 191.73C91.6374 191.73 80.4401 195.836 80.4401 200.9C80.4401 205.964 91.6374 210.07 105.45 210.07Z" fill="#073F2C" stroke="#073F2C" stroke-linecap="round" stroke-linejoin="round"/>
<path d="M105.45 208.74C118.346 208.74 128.8 205.23 128.8 200.9C128.8 196.57 118.346 193.06 105.45 193.06C92.5542 193.06 82.1 196.57 82.1 200.9C82.1 205.23 92.5542 208.74 105.45 208.74Z" fill="white" stroke="#073F2C" stroke-linecap="round" stroke-linejoin="round"/>
<path d="M179.82 230.75C179.82 230.75 178.96 215.66 178.96 213.31C178.96 210.96 189.91 214.87 189.91 214.87C189.91 214.87 184.19 229.41 179.81 230.75H179.82Z" fill="white" stroke="#073F2C" stroke-linecap="round" stroke-linejoin="round"/>
<path d="M185.49 200.4C185.49 200.4 173.48 197.06 170.15 195.73C166.81 194.4 150.47 187.06 147.47 185.06C144.47 183.06 135.8 182.39 135.8 182.39C135.8 182.39 128.13 179.05 127.13 179.05C126.13 179.05 111.79 184.72 108.79 186.05C105.79 187.38 106.12 190.39 107.46 191.39C108.79 192.39 121.8 186.39 121.8 186.39L118.13 196.4C118.13 196.4 113.46 200.07 115.13 202.4C116.8 204.73 121.8 200.73 123.47 199.73C125.14 198.73 134.81 194.06 134.81 194.06C134.81 194.06 126.14 203.73 124.47 206.4C122.8 209.07 126.8 209.07 128.14 208.4C129.47 207.73 138.81 200.73 138.81 200.73C138.81 200.73 152.48 210.07 156.15 210.07C159.82 210.07 165.82 207.74 165.82 207.74L186.5 219.41C186.5 219.41 189.84 213.74 190.17 209.74C190.5 205.74 190.5 200.73 190.5 200.73L185.5 200.4H185.49Z" fill="#4BA285" stroke="#073F2C" stroke-linecap="round" stroke-linejoin="round"/>
<path d="M118.12 196.4L125.79 189.73L132.13 186.73" stroke="#073F2C" stroke-linecap="round" stroke-linejoin="round"/>
<path d="M121.79 186.4L123.46 182.73" stroke="#073F2C" stroke-linecap="round" stroke-linejoin="round"/>
<path d="M128.8 188.73L130.13 184.73" stroke="#073F2C" stroke-linecap="round" stroke-linejoin="round"/>
<path d="M138.8 200.74L147.81 198.4" stroke="#073F2C" stroke-linecap="round" stroke-linejoin="round"/>
<path d="M134.8 194.07L139.47 191.4" stroke="#073F2C" stroke-linecap="round" stroke-linejoin="round"/>
<path d="M181.96 199.41C182.85 202.1 183.53 205.9 182.49 210.08C181.9 212.46 181.06 214.36 180.19 215.86L186.49 219.42C186.49 219.42 189.83 213.75 190.16 209.75C190.49 205.75 190.49 200.74 190.49 200.74L185.49 200.41C185.49 200.41 184.02 200 181.96 199.41Z" fill="#D1D1D1" stroke="#073F2C" stroke-linecap="round" stroke-linejoin="round"/>
<path d="M223.52 188.4C223.52 188.4 214.52 190.73 210.85 192.74C207.18 194.74 192.51 196.74 191.17 197.41C189.84 198.08 181.97 199.41 181.97 199.41C181.97 199.41 185.83 207.41 183.83 213.75C181.83 220.09 179.83 230.76 179.83 230.76C179.83 230.76 196.84 235.43 211.51 231.76C226.18 228.09 235.86 217.42 238.53 216.08C241.2 214.75 242.53 209.08 242.53 206.41C242.53 203.74 233.86 194.07 231.86 193.4" fill="white"/>
<path d="M223.52 188.4C223.52 188.4 214.52 190.73 210.85 192.74C207.18 194.74 192.51 196.74 191.17 197.41C189.84 198.08 181.97 199.41 181.97 199.41C181.97 199.41 185.83 207.41 183.83 213.75C181.83 220.09 179.83 230.76 179.83 230.76C179.83 230.76 196.84 235.43 211.51 231.76C226.18 228.09 235.86 217.42 238.53 216.08C241.2 214.75 242.53 209.08 242.53 206.41C242.53 203.74 233.86 194.07 231.86 193.4" stroke="#073F2C" stroke-linecap="round" stroke-linejoin="round"/>
<path d="M127.8 47.92C127.8 47.92 118.13 50.92 112.46 56.26C106.79 61.6 106.79 82.27 106.79 84.94C106.79 87.61 105.79 103.62 106.46 108.29C107.13 112.96 120.47 132.64 129.47 132.97C138.47 133.3 152.48 122.63 154.82 119.3C157.15 115.96 160.82 109.96 162.16 106.63C163.49 103.29 165.16 91.29 165.5 87.62C165.83 83.95 165.5 78.28 165.5 78.28C165.5 78.28 167.5 68.61 163.83 62.27C160.16 55.93 149.82 48.26 141.48 46.93C133.14 45.6 127.81 47.93 127.81 47.93L127.8 47.92Z" fill="white" stroke="#073F2C" stroke-linecap="round" stroke-linejoin="round"/>
<path d="M106.78 79.93C106.78 79.93 113.78 73.93 129.46 73.59C145.14 73.26 155.47 82.26 155.47 82.26C155.47 82.26 157.8 80.59 157.14 89.6C156.47 98.61 155.47 100.61 148.14 103.27C140.8 105.94 124.46 107.94 117.46 105.94C110.46 103.94 106.76 96.28 106.44 93.94C106.12 91.6 106.79 79.93 106.79 79.93H106.78Z" fill="#D1D1D1" stroke="#073F2C" stroke-linecap="round" stroke-linejoin="round"/>
<path d="M106.78 76.93C106.78 76.93 118.45 82.27 134.8 81.6C151.14 80.93 164.18 76.17 165.84 75.83C167.5 75.49 166.19 78.44 166.19 78.44L156.81 83.26C156.81 83.26 156.81 92.27 154.81 95.27C152.81 98.27 148.47 100.27 143.8 100.27C139.13 100.27 134.78 97.61 132.13 95.27C131.01 94.28 128.46 94.6 127.46 95.94C126.46 97.27 125.13 99.28 120.79 98.94C116.45 98.61 111.45 97.61 109.45 94.94C107.45 92.27 106.78 84.93 106.78 84.93C106.78 84.93 106.45 78.26 106.78 76.93Z" fill="white" stroke="#073F2C" stroke-linecap="round" stroke-linejoin="round"/>
<path d="M119.72 127.76C119.72 127.76 120.9 131.69 124.83 134.83C128.76 137.97 131.12 139.15 135.44 137.97C139.76 136.79 153.52 129.72 148.8 130.5C144.08 131.28 140.55 132.46 140.55 132.46C140.55 132.46 149.2 127.74 154.7 122.64C160.2 117.53 157.45 111.24 157.45 111.24C157.45 111.24 119.33 123.03 116.58 121.46C113.83 119.89 119.72 127.75 119.72 127.75V127.76Z" fill="#073F2C"/>
<path d="M165.48 87.61C165.58 86.47 165.62 85.13 165.63 83.83C164.75 84.9 160.87 89.59 158.81 91.94C156.48 94.61 151.14 98.94 130.13 97.94C109.12 96.94 106.45 93.94 106.45 93.94H106.44C106.23 99.38 106.08 105.64 106.45 108.28C107.12 112.95 120.46 132.63 129.46 132.96C138.46 133.29 152.47 122.62 154.81 119.29C157.14 115.95 160.81 109.95 162.15 106.62L159.48 110.62L160.48 94.28L165.48 87.61Z" fill="#4BA285" stroke="#073F2C" stroke-linecap="round" stroke-linejoin="round"/>
<path d="M126.8 88.27C126.8 88.27 122.8 83.27 114.46 84.6" stroke="#073F2C" stroke-linecap="round" stroke-linejoin="round"/>
<path d="M137.13 88.27C137.13 88.27 142.47 85.27 151.47 86.6" stroke="#073F2C" stroke-linecap="round" stroke-linejoin="round"/>
<path d="M115.46 90.94C115.46 90.94 118.46 95.94 124.46 92.94" stroke="#073F2C" stroke-linecap="round" stroke-linejoin="round"/>
<path d="M138.47 93.28C138.47 93.28 141.81 98.62 149.81 93.28" stroke="#073F2C" stroke-linecap="round" stroke-linejoin="round"/>
<path d="M41.73 262.02H232.62" stroke="#073F2C" stroke-linecap="round" stroke-linejoin="round"/>
<path d="M267.45 428.65C317.233 428.65 357.59 388.293 357.59 338.51C357.59 288.727 317.233 248.37 267.45 248.37C217.667 248.37 177.31 288.727 177.31 338.51C177.31 388.293 217.667 428.65 267.45 428.65Z" fill="#4BA285"/>
<path d="M219.39 250.25C219.39 250.25 207.35 242.23 193.86 242.59C180.37 242.95 175.26 256.81 174.53 260.83C173.8 264.84 174.89 267.03 166.87 267.03C158.85 267.03 142.07 265.57 135.5 274.32C128.93 283.07 128.21 292.92 134.04 299.12C139.88 305.32 142.06 307.87 142.06 307.87C142.06 307.87 135.86 313.71 138.78 321.73C141.7 329.75 152.27 333.4 159.2 333.4C166.13 333.4 176.71 323.55 179.62 317.72C182.54 311.88 190.93 313.71 197.49 304.59C204.06 295.47 200.77 284.17 199.68 277.97C198.59 271.77 200.04 259 208.8 255.72C217.55 252.44 219.01 252.44 219.01 252.44L219.37 250.25H219.39Z" fill="#073F2C" stroke="#073F2C" stroke-linecap="round" stroke-linejoin="round"/>
<path d="M117.64 427.87L143.9 380.82C143.9 380.82 144.63 370.97 149.01 357.11C153.39 343.25 158.49 321 164.69 313.34C170.89 305.68 191.68 298.75 191.68 298.75C191.68 298.75 211.74 307.5 217.21 311.52C222.68 315.53 231.8 322.46 234.72 328.66C237.64 334.86 240.19 349.81 244.93 355.28C249.67 360.75 260.25 371.69 259.88 381.9C259.52 392.11 257.69 396.12 257.69 398.68C257.69 401.24 252.59 398.14 243.11 399.24C233.63 400.33 226.88 403.45 226.15 404.54C225.42 405.63 202 443 202 443" fill="white"/>
<path d="M117.64 427.87L143.9 380.82C143.9 380.82 144.63 370.97 149.01 357.11C153.39 343.25 158.49 321 164.69 313.34C170.89 305.68 191.68 298.75 191.68 298.75C191.68 298.75 211.74 307.5 217.21 311.52C222.68 315.53 231.8 322.46 234.72 328.66C237.64 334.86 240.19 349.81 244.93 355.28C249.67 360.75 260.25 371.69 259.88 381.9C259.52 392.11 257.69 396.12 257.69 398.68C257.69 401.24 252.59 398.14 243.11 399.24C233.63 400.33 226.88 403.45 226.15 404.54C225.42 405.63 202 443 202 443" stroke="#073F2C" stroke-linecap="round" stroke-linejoin="round"/>
<path d="M235.44 345.08C235.44 345.08 239.09 365.5 239.82 370.61C240.55 375.72 230.34 396.51 227.78 398.69" stroke="#073F2C" stroke-linecap="round" stroke-linejoin="round"/>
<path d="M227.05 345.08C227.05 345.08 226.32 362.22 227.41 370.61C228.5 379 230.69 389.58 228.87 392.86" stroke="#073F2C" stroke-linecap="round" stroke-linejoin="round"/>
<path d="M238.72 376.08C238.72 376.08 244.92 370.97 252.94 373.16" stroke="#073F2C" stroke-linecap="round" stroke-linejoin="round"/>
<path d="M242.01 371.71C242.01 371.71 246.75 368.79 251.13 368.79" stroke="#073F2C" stroke-linecap="round" stroke-linejoin="round"/>
<path d="M227.78 316.63L231.06 323.2L235.07 341.8L229.23 331.59L226.31 343.99L222.66 321.38C222.66 321.38 224.12 313.72 227.77 316.64L227.78 316.63Z" fill="white" stroke="#073F2C" stroke-linecap="round" stroke-linejoin="round"/>
<path d="M213.19 283.08C213.19 283.08 208.81 287.09 205.53 288.55C202.25 290.01 198.24 291.47 198.24 291.47L218.3 331.59L226.32 343.99C226.32 343.99 225.96 333.41 225.96 329.77C225.96 326.13 225.23 322.11 225.23 322.11L234.71 310.44C234.71 310.44 237.63 283.45 235.07 279.07C232.51 274.69 217.93 278.34 213.19 283.08Z" fill="white" stroke="#073F2C" stroke-linecap="round" stroke-linejoin="round"/>
<path d="M235.6 300.26L228.64 294C228.64 294 227.06 295.5 225.95 305.22C225.39 310.15 226.96 314.64 228.66 317.88L234.71 310.43C234.71 310.43 235.2 305.91 235.6 300.26Z" fill="#073F2C" stroke="#073F2C" stroke-linecap="round" stroke-linejoin="round"/>
<path d="M279.93 271.46C279.93 271.46 277.34 284.02 275.13 288.08C272.91 292.14 269.81 294.37 269.59 296.21C268.84 302.44 268.85 305.08 267 307.66C265.15 310.25 254.81 316.53 248.53 318C242.25 319.48 238.56 320.59 236.71 318.74C234.86 316.89 228.21 307.29 228.21 303.22C228.21 299.15 227.1 298.05 228.21 295.46C229.32 292.87 229.32 286.22 229.32 286.22C229.32 286.22 229.32 282.9 233.75 277.35C238.18 271.81 246.68 270.33 252.96 270.33C259.24 270.33 259.98 265.9 266.63 264.05C273.28 262.2 278.08 267.74 279.93 271.44V271.46Z" fill="white" stroke="#073F2C" stroke-linecap="round" stroke-linejoin="round"/>
<path d="M265.4 293.63C264.62 294.93 263.5 295.68 262.89 295.32C262.28 294.95 262.41 293.61 263.19 292.31C263.97 291.01 265.09 290.26 265.7 290.62C266.31 290.99 266.18 292.33 265.4 293.63Z" fill="#073F2C"/>
<path d="M263.65 286.53C263.65 286.53 268.32 284.6 270.74 288.95" stroke="#073F2C" stroke-linecap="round" stroke-linejoin="round"/>
<path d="M267 307.67C267.82 306.52 268.42 304.5 268.84 302.45C265.97 300.88 259.65 297.18 256.29 293.26C251.86 288.09 242.99 275.53 242.99 275.53L241.51 277.38L248.9 289.57C248.9 289.57 240.4 296.59 234.49 296.59C229.89 296.59 228.88 294.81 228.65 294.01C228.53 294.57 228.38 295.08 228.21 295.48C227.1 298.07 228.21 299.17 228.21 303.24C228.21 307.31 234.86 316.91 236.71 318.76C238.56 320.61 242.25 319.5 248.53 318.02C254.81 316.54 265.15 310.26 267 307.68V307.67Z" fill="#4BA285" stroke="#073F2C" stroke-linecap="round" stroke-linejoin="round"/>
<path d="M240.03 280.33C240.03 280.33 244.46 277.37 250.74 277.74C257.02 278.11 264.41 280.7 266.26 277.37C268.11 274.05 268.48 267.76 274.02 269.24C279.56 270.72 280.3 274.04 280.3 274.04C280.3 274.04 291.75 273.67 292.86 267.39C293.97 261.11 287.69 251.14 283.62 250.4C279.56 249.66 275.86 248.92 275.86 248.92C275.86 248.92 261.82 234.51 245.2 234.88C228.58 235.25 221.19 241.9 217.12 255.94C213.06 269.98 214.9 275.15 211.58 279.95C208.26 284.75 206.41 289.56 214.54 288.82C222.67 288.08 228.21 282.91 232.27 281.06C236.33 279.21 240.03 280.32 240.03 280.32V280.33Z" fill="#073F2C" stroke="#073F2C" stroke-linecap="round" stroke-linejoin="round"/>
<path d="M241.14 282.92C241.14 282.92 245.57 277.38 241.51 271.47C237.45 265.56 225.62 277.01 227.47 283.29C229.32 289.57 234.12 288.83 234.12 288.83" fill="white"/>
<path d="M241.14 282.92C241.14 282.92 245.57 277.38 241.51 271.47C237.45 265.56 225.62 277.01 227.47 283.29C229.32 289.57 234.12 288.83 234.12 288.83" stroke="#073F2C" stroke-linecap="round" stroke-linejoin="round"/>
<path d="M201.16 286.72L223.41 331.95L215.75 344.35L188.76 297.67L201.16 286.72Z" fill="white" stroke="#073F2C" stroke-linecap="round" stroke-linejoin="round"/>
<path d="M228.15 400.47C228.15 400.47 227.64 391.74 238.77 390.87C249.9 390 258.49 394.8 259 402.22C259.51 409.64 236.75 404.84 234.22 404.84C231.69 404.84 228.15 400.48 228.15 400.48V400.47Z" fill="white" stroke="#073F2C" stroke-linecap="round" stroke-linejoin="round"/>
<path d="M352.52 423.92H204.44V432.25H352.15" fill="white"/>
<path d="M352.52 423.92H204.44V432.25H352.15" stroke="#073F2C" stroke-linecap="round" stroke-linejoin="round"/>
<path d="M300 335.23L261.34 351.28V411.1H275.93V354.93L302.92 339.97L300 335.23Z" fill="white" stroke="#073F2C" stroke-linecap="round" stroke-linejoin="round"/>
<path d="M320.15 392.18C320.15 391.57 319.79 391.05 319.27 390.81C319.79 390.57 320.15 390.05 320.15 389.44C320.15 388.61 319.48 387.94 318.65 387.94H305.79C304.96 387.94 304.29 388.61 304.29 389.44C304.29 390.05 304.65 390.57 305.17 390.81C304.65 391.05 304.29 391.57 304.29 392.18C304.29 392.79 304.65 393.31 305.17 393.55C304.65 393.79 304.29 394.31 304.29 394.92C304.29 395.53 304.65 396.05 305.17 396.29C304.65 396.53 304.29 397.05 304.29 397.66C304.29 398.27 304.65 398.79 305.17 399.03C304.65 399.27 304.29 399.79 304.29 400.4C304.29 401.23 304.96 401.9 305.79 401.9H318.65C319.48 401.9 320.15 401.23 320.15 400.4C320.15 399.79 319.79 399.27 319.27 399.03C319.79 398.79 320.15 398.27 320.15 397.66C320.15 397.05 319.79 396.53 319.27 396.29C319.79 396.05 320.15 395.53 320.15 394.92C320.15 394.31 319.79 393.79 319.27 393.55C319.79 393.31 320.15 392.79 320.15 392.18Z" fill="#073F2C" stroke="#073F2C" stroke-linecap="round" stroke-linejoin="round"/>
<path d="M331.91 401.61H261.06V416.11H331.91V401.61Z" fill="white" stroke="#073F2C" stroke-linecap="round" stroke-linejoin="round"/>
<path d="M331.91 408.45H261.06V416.11H331.91V408.45Z" fill="#073F2C" stroke="#073F2C" stroke-linecap="round" stroke-linejoin="round"/>
<path d="M274.19 415.84H265.71V423.77H274.19V415.84Z" fill="#073F2C" stroke="#073F2C" stroke-linecap="round" stroke-linejoin="round"/>
<path d="M299.91 415.84H291.43V423.77H299.91V415.84Z" fill="#073F2C" stroke="#073F2C" stroke-linecap="round" stroke-linejoin="round"/>
<path d="M325.62 415.84H317.14V423.77H325.62V415.84Z" fill="#073F2C" stroke="#073F2C" stroke-linecap="round" stroke-linejoin="round"/>
<path d="M333.28 373.71H270.36V376.99H333.28V373.71Z" fill="white" stroke="#073F2C" stroke-linecap="round" stroke-linejoin="round"/>
<path d="M329.72 376.72H275.83V381.64H329.72V376.72Z" fill="#073F2C" stroke="#073F2C" stroke-linecap="round" stroke-linejoin="round"/>
<path d="M273.458 292.766L267.547 299.217L304.654 333.219L310.565 326.768L273.458 292.766Z" fill="#073F2C" stroke="#073F2C" stroke-linecap="round" stroke-linejoin="round"/>
<path d="M310.25 344.83H303.32V362.7H310.25V344.83Z" fill="#073F2C" stroke="#073F2C" stroke-linecap="round" stroke-linejoin="round"/>
<path d="M309.5 362.95H304.12V365.94H309.5V362.95Z" fill="#073F2C" stroke="#073F2C" stroke-linecap="round" stroke-linejoin="round"/>
<path d="M316.625 339.387L310.282 342.177L317.476 358.535L323.82 355.745L316.625 339.387Z" fill="#073F2C" stroke="#073F2C" stroke-linecap="round" stroke-linejoin="round"/>
<path d="M323.229 356.273L318.305 358.438L319.508 361.175L324.433 359.01L323.229 356.273Z" fill="#073F2C" stroke="#073F2C" stroke-linecap="round" stroke-linejoin="round"/>
<path d="M305.1 321.01L297.81 328.3V349.09L321.15 343.26V329.4L305.1 321.01Z" fill="white" stroke="#073F2C" stroke-linecap="round" stroke-linejoin="round"/>
<path d="M321.15 337.84L297.81 343.87V349.09L321.15 343.26V337.84Z" fill="#073F2C" stroke="#073F2C" stroke-linecap="round" stroke-linejoin="round"/>
<path d="M258.42 396.51C258.42 396.51 269.36 389.22 271.55 386.66C273.74 384.11 281.76 373.89 283.95 373.53C286.14 373.17 293.8 373.17 295.26 373.17C296.72 373.17 301.46 377.55 302.55 378.28C303.64 379.01 304.01 382.29 302.91 382.66C301.82 383.02 295.98 380.11 295.98 380.11L286.13 381.93C286.13 381.93 301.08 385.58 302.18 386.31C303.27 387.04 302.91 390.69 302.91 390.69L298.53 392.88C298.53 392.88 302.91 392.52 302.91 395.07C302.91 397.62 302.91 400.18 301.09 400.18H299.27C299.27 400.18 303.28 404.19 302.19 405.29C301.1 406.38 299.27 407.11 297.45 407.11C295.63 407.11 291.25 409.3 286.14 411.12C281.03 412.94 273.37 416.23 269.36 416.96C265.35 417.69 259.51 418.42 259.51 418.42C259.51 418.42 259.15 408.94 258.42 406.02C257.69 403.1 256.23 397.63 256.23 397.63L258.42 396.54V396.51Z" fill="white" stroke="#073F2C" stroke-linecap="round" stroke-linejoin="round"/>
<path d="M298.54 392.86L290.8 394.26" stroke="#073F2C" stroke-linecap="round" stroke-linejoin="round"/>
<path d="M299.27 400.15L291.63 401.72" stroke="#073F2C" stroke-linecap="round" stroke-linejoin="round"/>
<path d="M169.06 321.37C164.32 328.66 158.85 345.44 158.85 353.83C158.85 362.22 151.92 394.31 151.19 405.99C150.46 417.66 150.83 424.96 158.12 426.41C165.41 427.86 188.39 429.69 198.6 428.6C208.81 427.51 220.48 427.51 236.53 427.51C252.58 427.51 260.24 426.42 260.24 426.42C260.24 426.42 262.06 417.3 262.43 410.74C262.79 404.17 260.24 394.33 259.15 394.33C258.06 394.33 240.55 397.25 225.6 399.07C210.65 400.89 203.35 398.34 200.8 397.25C198.25 396.16 197.15 396.16 197.15 396.16V391.42L192.77 391.06L196.78 365.53C196.78 365.53 200.06 363.34 201.16 360.79C202.25 358.24 203.71 345.11 202.98 337.08C202.25 329.06 194.59 324.31 194.59 324.31" fill="white"/>
<path d="M169.06 321.37C164.32 328.66 158.85 345.44 158.85 353.83C158.85 362.22 151.92 394.31 151.19 405.99C150.46 417.66 150.83 424.96 158.12 426.41C165.41 427.86 188.39 429.69 198.6 428.6C208.81 427.51 220.48 427.51 236.53 427.51C252.58 427.51 260.24 426.42 260.24 426.42C260.24 426.42 262.06 417.3 262.43 410.74C262.79 404.17 260.24 394.33 259.15 394.33C258.06 394.33 240.55 397.25 225.6 399.07C210.65 400.89 203.35 398.34 200.8 397.25C198.25 396.16 197.15 396.16 197.15 396.16V391.42L192.77 391.06L196.78 365.53C196.78 365.53 200.06 363.34 201.16 360.79C202.25 358.24 203.71 345.11 202.98 337.08C202.25 329.06 194.59 324.31 194.59 324.31" stroke="#073F2C" stroke-linecap="round" stroke-linejoin="round"/>
<path d="M192.04 393.95C192.04 393.95 189.12 399.06 178.18 403.43" stroke="#073F2C" stroke-linecap="round" stroke-linejoin="round"/>
<path d="M193.13 397.97C193.13 397.97 176.72 410.37 173.07 415.11" stroke="#073F2C" stroke-linecap="round" stroke-linejoin="round"/>
<path d="M159.58 402.71C159.58 402.71 173.44 402.35 183.29 396.14" stroke="#073F2C" stroke-linecap="round" stroke-linejoin="round"/>
<path d="M194.96 364.05C194.96 364.05 191.68 358.94 183.29 354.2" stroke="#073F2C" stroke-linecap="round" stroke-linejoin="round"/>
<defs>
<filter id="filter0_d_3_240" x="0.457825" y="0.285431" width="499.07" height="469.714" filterUnits="userSpaceOnUse" color-interpolation-filters="sRGB">
<feFlood flood-opacity="0" result="BackgroundImageFix"/>
<feColorMatrix in="SourceAlpha" type="matrix" values="0 0 0 0 0 0 0 0 0 0 0 0 0 0 0 0 0 0 127 0" result="hardAlpha"/>
<feOffset/>
<feGaussianBlur stdDeviation="10"/>
<feComposite in2="hardAlpha" operator="out"/>
<feColorMatrix type="matrix" values="0 0 0 0 0.0256076 0 0 0 0 0.245833 0 0 0 0 0.172425 0 0 0 0.5 0"/>
<feBlend mode="normal" in2="BackgroundImageFix" result="effect1_dropShadow_3_240"/>
<feBlend mode="normal" in="SourceGraphic" in2="effect1_dropShadow_3_240" result="shape"/>
</filter>
</defs>
</svg>
