<svg width="59" height="32" viewBox="0 0 59 32" fill="none" xmlns="http://www.w3.org/2000/svg">
<g filter="url(#filter0_d_753_172)">
<path d="M10.5 4.5L17 16L10.5 27.5L4 16L10.5 4.5Z" fill="url(#paint0_linear_753_172)"/>
</g>
<path d="M10.5 7.5L15 16L10.5 24.5L6 16L10.5 7.5Z" fill="url(#paint1_linear_753_172)"/>
<path d="M11 10L10.5 9L7 16L7.5 17L11 10Z" fill="white"/>
<path d="M11 16.5L10.75 16L9 19.5L9.25 20L11 16.5Z" fill="white"/>
<path d="M31.2383 17.6982L33.8701 11.0469H35.3877L31.8672 19.3389C31.7669 19.5713 31.6553 19.7969 31.5322 20.0156C31.4092 20.2298 31.2588 20.4212 31.0811 20.5898C30.9033 20.7585 30.6823 20.8929 30.418 20.9932C30.1582 21.0934 29.8346 21.1436 29.4473 21.1436C29.3379 21.1436 29.208 21.1367 29.0576 21.123C28.9072 21.1139 28.8092 21.1025 28.7637 21.0889L28.8047 20.0361C28.8548 20.0452 28.9528 20.0544 29.0986 20.0635C29.2445 20.068 29.3516 20.0703 29.4199 20.0703C29.6797 20.0703 29.8848 20.0179 30.0352 19.9131C30.1855 19.8083 30.3063 19.6761 30.3975 19.5166C30.4932 19.3525 30.5798 19.1862 30.6572 19.0176L31.2383 17.6982ZM29.0029 11.0469L31.7715 17.2471L32.0996 18.4707L30.9922 18.5527L27.5264 11.0469H29.0029ZM37.3359 15.0254V23.8438H36.0645V13.6035H37.2266L37.3359 15.0254ZM42.3193 17.2402V17.3838C42.3193 17.9215 42.2555 18.4206 42.1279 18.8809C42.0003 19.3366 41.8135 19.7331 41.5674 20.0703C41.3258 20.4076 41.0273 20.6696 40.6719 20.8564C40.3164 21.0433 39.9085 21.1367 39.4482 21.1367C38.9788 21.1367 38.5641 21.0592 38.2041 20.9043C37.8441 20.7493 37.5387 20.5238 37.2881 20.2275C37.0374 19.9313 36.8369 19.5758 36.6865 19.1611C36.5407 18.7464 36.4404 18.2793 36.3857 17.7598V16.9941C36.4404 16.4473 36.543 15.9574 36.6934 15.5244C36.8438 15.0915 37.042 14.7223 37.2881 14.417C37.5387 14.1071 37.8418 13.8724 38.1973 13.7129C38.5527 13.5488 38.9629 13.4668 39.4277 13.4668C39.8926 13.4668 40.305 13.5579 40.665 13.7402C41.0251 13.918 41.3281 14.1732 41.5742 14.5059C41.8203 14.8385 42.0049 15.2373 42.1279 15.7021C42.2555 16.1624 42.3193 16.6751 42.3193 17.2402ZM41.0479 17.3838V17.2402C41.0479 16.8711 41.0091 16.5247 40.9316 16.2012C40.8542 15.873 40.7334 15.5859 40.5693 15.3398C40.4098 15.0892 40.2048 14.8932 39.9541 14.752C39.7035 14.6061 39.4049 14.5332 39.0586 14.5332C38.7396 14.5332 38.4616 14.5879 38.2246 14.6973C37.9922 14.8066 37.7939 14.9548 37.6299 15.1416C37.4658 15.3239 37.3314 15.5335 37.2266 15.7705C37.1263 16.0029 37.0511 16.2445 37.001 16.4951V18.2656C37.0921 18.5846 37.2197 18.8854 37.3838 19.168C37.5479 19.446 37.7666 19.6715 38.04 19.8447C38.3135 20.0133 38.6576 20.0977 39.0723 20.0977C39.4141 20.0977 39.708 20.027 39.9541 19.8857C40.2048 19.7399 40.4098 19.5417 40.5693 19.291C40.7334 19.0404 40.8542 18.7533 40.9316 18.4297C41.0091 18.1016 41.0479 17.7529 41.0479 17.3838ZM43.9531 20.3301C43.9531 20.1159 44.0192 19.9359 44.1514 19.79C44.2881 19.6396 44.484 19.5645 44.7393 19.5645C44.9945 19.5645 45.1882 19.6396 45.3203 19.79C45.457 19.9359 45.5254 20.1159 45.5254 20.3301C45.5254 20.5397 45.457 20.7174 45.3203 20.8633C45.1882 21.0091 44.9945 21.082 44.7393 21.082C44.484 21.082 44.2881 21.0091 44.1514 20.8633C44.0192 20.7174 43.9531 20.5397 43.9531 20.3301ZM55.1162 10.9922V21H53.8516V12.5713L51.3018 13.501V12.3594L54.918 10.9922H55.1162Z" fill="white"/>
<defs>
<filter id="filter0_d_753_172" x="0" y="0.5" width="21" height="31" filterUnits="userSpaceOnUse" color-interpolation-filters="sRGB">
<feFlood flood-opacity="0" result="BackgroundImageFix"/>
<feColorMatrix in="SourceAlpha" type="matrix" values="0 0 0 0 0 0 0 0 0 0 0 0 0 0 0 0 0 0 127 0" result="hardAlpha"/>
<feOffset/>
<feGaussianBlur stdDeviation="2"/>
<feComposite in2="hardAlpha" operator="out"/>
<feColorMatrix type="matrix" values="0 0 0 0 0.0256076 0 0 0 0 0.245833 0 0 0 0 0.172425 0 0 0 0.5 0"/>
<feBlend mode="normal" in2="BackgroundImageFix" result="effect1_dropShadow_753_172"/>
<feBlend mode="normal" in="SourceGraphic" in2="effect1_dropShadow_753_172" result="shape"/>
</filter>
<linearGradient id="paint0_linear_753_172" x1="14.5" y1="20.5" x2="6.5" y2="11.5" gradientUnits="userSpaceOnUse">
<stop offset="0.24" stop-color="#FF9797"/>
<stop offset="1" stop-color="#7C67FF"/>
</linearGradient>
<linearGradient id="paint1_linear_753_172" x1="8" y1="12" x2="12.5" y2="19.5" gradientUnits="userSpaceOnUse">
<stop stop-color="#BDB3FF"/>
<stop offset="0.785" stop-color="#FFC5C5"/>
</linearGradient>
</defs>
</svg>
