<svg width="20" height="20" viewBox="0 0 20 20" fill="none" xmlns="http://www.w3.org/2000/svg">
<path d="M3.125 9.5625C3.125 10.875 3.68964 11.7439 4.49955 12.1648C5.30945 12.5865 6.28081 12.625 7.20894 12.625H14.7434V11.75H7.20982C6.31698 11.75 5.46737 11.68 4.91067 11.3904C4.35397 11.1007 4.00725 10.6562 4.00725 9.5625V5.625H3.125V9.5625Z" fill="#808080"/>
<path d="M12.8298 10L12.8316 14.375C13.5021 14.0705 14.1859 13.7301 14.8811 13.3547C15.5701 12.9776 16.2344 12.5882 16.875 12.1875C16.2344 11.7946 15.5701 11.4096 14.8811 11.0325C14.2083 10.6679 13.5245 10.3236 12.8307 10H12.8298Z" fill="#808080"/>
</svg>
