<svg width="32" height="32" viewBox="0 0 32 32" fill="none" xmlns="http://www.w3.org/2000/svg">
<path d="M20.5787 5.21909C19.8209 4.57749 19.2975 4.72429 18.5397 6.13434C18.0663 7.01051 17.3271 7.15758 16.832 7.14946V7.09388C17.4394 6.78658 17.859 6.14152 17.859 5.39301C17.859 4.34757 17.0424 3.5 16.0352 3.5C15.0279 3.5 14.2113 4.34757 14.2113 5.39301C14.2113 6.13301 14.6213 6.77222 15.2175 7.08364V7.14787C14.7234 7.16662 13.9505 7.0399 13.4612 6.13434C12.7036 4.72429 12.1723 4.57749 11.4222 5.21909C10.6565 5.86667 7.6565 9.58874 4 9.24819C4 9.24819 4.72679 10.952 6.70321 10.5791C6.70321 10.5791 7.75797 11.7145 9.4688 10.9198C9.4688 10.9198 10.3595 11.7539 11.7814 10.9917C11.7814 10.9917 12.8282 11.826 13.9533 11.1064C13.9533 11.1064 14.5028 11.5466 15.2173 11.4707V15.7235C15.1814 15.7168 15.1449 15.7123 15.1095 15.7041C14.4899 15.5577 13.8831 15.4284 12.5859 15.0554C11.3438 14.7137 9.97665 14.1612 9.77333 13.8795C9.78922 13.8633 9.81254 13.8462 9.85161 13.8298C9.96089 13.7649 10.1563 13.7093 10.3748 13.6596C10.8358 13.5624 11.4532 13.5135 12.0781 13.4813C13.3204 13.4417 13.4148 13.5064 13.5624 13.4974C13.71 13.4882 14.4651 13.4784 14.4888 12.8828C14.5125 12.287 14.1038 12.2434 13.7836 12.1764C13.276 12.1045 13.492 12.1268 12.8045 12.136C11.664 12.2251 8.17165 11.9323 7.73414 13.8379C7.73414 13.8936 7.72645 13.927 7.71851 13.9767C7.86687 15.637 11.1873 16.3608 13.5858 16.8535C12.7733 17.4313 12.3357 18.1854 12.1639 19.1667C12.078 20.2046 12.8748 21.1939 14.7265 22.2946C13.3202 23.3245 12.3983 24.2976 12.4764 25.4673C12.6014 26.4241 13.4139 27.6972 15.0077 28.5C15.0155 28.5 15.0155 28.5 15.0155 28.5H15.0232C15.0232 28.5 13.9062 26.7324 13.8357 25.7653C13.7672 25.269 13.9998 24.5632 14.9713 23.7249C15.0527 23.6453 15.1347 23.578 15.2169 23.52V27.086C15.2164 27.0983 15.2151 27.1104 15.2151 27.1229C15.2151 27.5866 15.577 27.9627 16.0234 27.9627C16.4697 27.9627 16.8315 27.5867 16.8315 27.1229V23.6692C17.7091 24.3797 18.0715 25.2745 18.0077 25.7653C17.9374 26.7324 16.8202 28.5 16.8202 28.5C16.8202 28.5 16.8279 28.5 16.8356 28.5C18.4295 27.6972 19.242 26.4243 19.3669 25.4673C19.4453 24.2975 18.5231 23.3245 17.1227 22.2946C18.9685 21.1939 19.7655 20.2044 19.6794 19.1667C19.5077 18.1936 19.0702 17.4395 18.2577 16.8535C20.6561 16.3608 23.9766 15.6372 24.1248 13.9767C24.117 13.927 24.1093 13.8936 24.1093 13.8379C23.6718 11.9323 20.1794 12.2251 19.0389 12.136C18.3513 12.1268 18.4368 12.1224 18.1151 12.1237C17.7931 12.1249 17.3773 12.3009 17.3669 12.8334C17.3565 13.3659 17.9484 13.503 18.281 13.4972C18.4755 13.4939 18.5231 13.4415 19.7655 13.4891C20.3904 13.5133 21.0077 13.5621 21.4607 13.6593C21.6874 13.7091 21.8749 13.7646 21.992 13.8295C22.0232 13.8459 22.0545 13.863 22.0702 13.8793C21.8669 14.1609 20.4998 14.7133 19.2576 15.0552C18.118 15.3828 17.1723 15.6037 16.9204 15.6603C16.8925 15.6642 16.861 15.6687 16.8314 15.6731V11.4924C17.3856 11.5663 18.0467 11.1062 18.0467 11.1062C19.164 11.8259 20.2186 10.9916 20.2186 10.9916C21.6404 11.7538 22.5232 10.9197 22.5232 10.9197C24.2422 11.7145 25.2968 10.579 25.2968 10.579C27.2732 10.952 28 9.24806 28 9.24806C24.3444 9.58874 21.3443 5.86667 20.5787 5.21909ZM15.2175 21.0023C14.911 20.8027 14.7134 20.7212 14.3833 20.4559C13.9614 20.1169 13.7652 19.6749 13.7652 19.3003C13.7652 18.9349 13.6644 18.2662 15.2175 17.6339V21.0023ZM18.0813 19.3639C18.0813 19.7211 17.8673 20.0969 17.4613 20.4559C17.258 20.6358 17.0409 20.7938 16.832 20.918V17.7261C18.1695 18.3448 18.0813 19.0242 18.0813 19.3639Z" fill="white"/>
</svg>
